<svg width="27" height="23" viewBox="0 0 27 23" fill="none" xmlns="http://www.w3.org/2000/svg">
<path d="M7.69775 18.2206C5.94355 19.4929 3.86619 20.1767 1.73415 20.1734M7.69775 18.2206L1.73419 20.2959L1.73415 20.1734M7.69775 18.2206C7.88864 18.2448 8.08124 18.2589 8.27489 18.2626L8.28467 17.7627L7.96355 17.3795C7.8332 17.4887 7.70064 17.5942 7.566 17.696C6.72442 17.5556 5.92342 17.199 5.23399 16.6522C4.49618 16.067 3.91698 15.2884 3.54987 14.3962L7.69775 18.2206ZM1.73415 20.1734C1.66305 20.1734 1.59196 20.1727 1.52089 20.1712C1.59162 20.2134 1.66265 20.2549 1.73396 20.2958L1.73415 20.1734ZM22.8838 3.4298L23.2164 4.34716C23.7513 4.27875 24.2738 4.17072 24.7818 4.02544C24.3168 4.56546 23.8016 5.05474 23.2437 5.48539L23.0387 5.64359L23.0497 5.90226C23.0596 6.13764 23.0651 6.37467 23.0651 6.60862C23.0651 13.8647 17.8996 22.1239 8.55864 22.1239L8.55805 22.1239C6.42205 22.1264 4.31889 21.6212 2.39816 20.6532C4.65689 20.5124 6.82412 19.6388 8.60578 18.146L9.6287 17.2889L8.29445 17.2628C7.30621 17.2435 6.34467 16.8949 5.54469 16.2604C4.9438 15.7839 4.45629 15.1634 4.12004 14.4503C4.7113 14.4753 5.30434 14.4045 5.87839 14.2387L5.84505 13.2696C4.77197 13.0381 3.80001 12.4161 3.09804 11.5003C2.54481 10.7785 2.18736 9.91046 2.0605 8.99149C2.64154 9.22032 3.25604 9.34912 3.88068 9.37033L5.53921 9.42665L4.18787 8.46346C3.53433 7.99764 2.99535 7.36444 2.62152 6.61768C2.24764 5.87081 2.05141 5.03508 2.05188 4.18497V4.1847C2.05188 3.52016 2.17007 2.88522 2.38424 2.30185C3.6548 3.80513 5.17687 5.0495 6.87657 5.96921C8.81353 7.0173 10.937 7.61984 13.1091 7.73623L13.7653 7.7714L13.6242 7.12959C13.3808 6.02259 13.487 4.86108 13.9248 3.82706C14.3624 2.79334 15.1047 1.94943 16.03 1.42067C16.9546 0.892325 18.0132 0.706072 19.0431 0.887176C20.0735 1.06835 21.0249 1.60848 21.7469 2.43132L21.9395 2.65078L22.2252 2.59091C22.9774 2.43332 23.7104 2.19306 24.4127 1.87507C24.0188 2.5055 23.4975 3.0379 22.8838 3.4298ZM1.37804 20.6675C1.49642 20.6714 1.61488 20.6734 1.73336 20.6734L25.6563 3.73338C25.0496 4.54717 24.341 5.27007 23.5492 5.8812C23.5594 6.12287 23.5651 6.36695 23.5651 6.60862C23.5651 14.0471 18.261 22.6239 8.55864 22.6239C6.04344 22.6269 3.57427 21.9511 1.37804 20.6675Z" fill="#E8CF36" stroke="black"/>
</svg>
