<svg width="23" height="23" viewBox="0 0 23 23" fill="none" xmlns="http://www.w3.org/2000/svg">
<path d="M11.4145 5.69142C8.40281 5.69142 5.97227 8.28556 5.97227 11.4999C5.97227 14.7143 8.40281 17.3084 11.4145 17.3084C14.4261 17.3084 16.8567 14.7143 16.8567 11.4999C16.8567 8.28556 14.4261 5.69142 11.4145 5.69142ZM11.4145 15.275C9.46684 15.275 7.87743 13.5786 7.87743 11.4999C7.87743 9.4212 9.46684 7.72482 11.4145 7.72482C13.3621 7.72482 14.9515 9.4212 14.9515 11.4999C14.9515 13.5786 13.3621 15.275 11.4145 15.275ZM17.0795 4.09982C16.3764 4.09982 15.8085 4.70587 15.8085 5.45636C15.8085 6.20685 16.3764 6.8129 17.0795 6.8129C17.7827 6.8129 18.3505 6.20968 18.3505 5.45636C18.3508 5.27815 18.318 5.10165 18.2542 4.93697C18.1904 4.77228 18.0968 4.62265 17.9787 4.49664C17.8607 4.37063 17.7205 4.27072 17.5662 4.20262C17.4119 4.13453 17.2465 4.09959 17.0795 4.09982V4.09982ZM22.0229 11.4999C22.0229 9.93663 22.0362 8.38751 21.9539 6.82706C21.8716 5.01456 21.4842 3.40597 20.2424 2.08058C18.998 0.752356 17.4935 0.341711 15.7953 0.253918C14.3306 0.166126 12.8792 0.180286 11.4171 0.180286C9.95242 0.180286 8.50099 0.166126 7.03895 0.253918C5.34075 0.341711 3.8336 0.755188 2.59179 2.08058C1.34733 3.4088 0.962582 5.01456 0.880325 6.82706C0.798069 8.39034 0.811336 9.93947 0.811336 11.4999C0.811336 13.0604 0.798069 14.6123 0.880325 16.1728C0.962582 17.9853 1.34998 19.5939 2.59179 20.9192C3.83625 22.2475 5.34075 22.6581 7.03895 22.7459C8.50364 22.8337 9.95507 22.8195 11.4171 22.8195C12.8818 22.8195 14.3332 22.8337 15.7953 22.7459C17.4935 22.6581 19.0006 22.2446 20.2424 20.9192C21.4869 19.591 21.8716 17.9853 21.9539 16.1728C22.0388 14.6123 22.0229 13.0632 22.0229 11.4999V11.4999ZM19.6879 18.1778C19.4942 18.6933 19.2607 19.0784 18.8865 19.4749C18.5124 19.8742 18.1542 20.1234 17.6713 20.3302C16.2756 20.9221 12.9614 20.789 11.4145 20.789C9.86751 20.789 6.55072 20.9221 5.15501 20.333C4.67208 20.1263 4.31122 19.8771 3.93974 19.4777C3.5656 19.0784 3.3321 18.6961 3.1384 18.1807C2.58648 16.6882 2.7112 13.151 2.7112 11.4999C2.7112 9.84884 2.58648 6.3088 3.1384 4.81915C3.3321 4.30372 3.5656 3.91857 3.93974 3.52208C4.31387 3.1256 4.67208 2.87355 5.15501 2.66681C6.55072 2.07775 9.86751 2.21085 11.4145 2.21085C12.9614 2.21085 16.2782 2.07775 17.6739 2.66681C18.1568 2.87355 18.5177 3.12277 18.8892 3.52208C19.2633 3.9214 19.4968 4.30372 19.6905 4.81915C20.2424 6.3088 20.1177 9.84884 20.1177 11.4999C20.1177 13.151 20.2424 16.6882 19.6879 18.1778Z" fill="#E8CF36"/>
</svg>
